<svg width="155" height="66" viewBox="0 0 155 66" fill="none" xmlns="http://www.w3.org/2000/svg">
<g filter="url(#filter0_d_1_366)">
<path d="M134.249 6.50009H20.7566C20.3429 6.50009 19.9342 6.50009 19.5216 6.50234C19.1762 6.50459 18.8336 6.51112 18.4849 6.51662C17.7273 6.52551 16.9716 6.59197 16.2242 6.71542C15.4778 6.84156 14.7548 7.07937 14.0797 7.4208C13.4053 7.76512 12.7892 8.21252 12.2536 8.74679C11.7151 9.27955 11.2663 9.89535 10.9244 10.5705C10.5815 11.2443 10.3437 11.9664 10.2193 12.7118C10.0936 13.4562 10.0261 14.2092 10.0171 14.964C10.0066 15.3089 10.0055 15.655 10 16V42.0035C10.0055 42.3528 10.0066 42.6912 10.0171 43.0406C10.0261 43.7954 10.0937 44.5484 10.2193 45.2928C10.3433 46.0386 10.5811 46.7611 10.9244 47.4351C11.2662 48.1081 11.715 48.7214 12.2536 49.2512C12.7872 49.7878 13.4037 50.2356 14.0797 50.5772C14.7548 50.9196 15.4777 51.1588 16.2242 51.2869C16.9717 51.4094 17.7274 51.4758 18.4849 51.4858C18.8336 51.4935 19.1762 51.4978 19.5216 51.4978C19.9342 51.5001 20.343 51.5001 20.7566 51.5001H134.249C134.655 51.5001 135.067 51.5001 135.472 51.4978C135.816 51.4978 136.169 51.4935 136.512 51.4858C137.268 51.4764 138.023 51.4099 138.769 51.2869C139.518 51.1579 140.243 50.9188 140.921 50.5772C141.597 50.2354 142.213 49.7877 142.746 49.2512C143.283 48.7193 143.733 48.1065 144.079 47.4351C144.42 46.7606 144.655 46.0381 144.777 45.2928C144.903 44.5483 144.973 43.7955 144.987 43.0406C144.991 42.6912 144.991 42.3528 144.991 42.0035C145 41.5948 145 41.1883 145 40.773V17.2282C145 16.8162 145 16.4076 144.991 16C144.991 15.655 144.991 15.3089 144.987 14.964C144.973 14.2091 144.903 13.4562 144.777 12.7117C144.655 11.9668 144.419 11.2448 144.079 10.5705C143.383 9.21718 142.278 8.11561 140.921 7.4207C140.243 7.0801 139.518 6.84236 138.769 6.71532C138.023 6.59133 137.269 6.52484 136.512 6.51647C136.169 6.51098 135.816 6.50438 135.472 6.50219C135.067 6.49994 134.655 6.49994 134.249 6.49994V6.50009Z" fill="#A6A6A6"/>
<path d="M19.5254 50.5156C19.1817 50.5156 18.8463 50.5112 18.5052 50.5035C17.7988 50.4943 17.094 50.433 16.3966 50.32C15.7463 50.2084 15.1163 50.0006 14.5275 49.7037C13.9441 49.4092 13.4119 49.023 12.9515 48.56C12.4843 48.1024 12.0954 47.5717 11.8002 46.9889C11.5016 46.4023 11.295 45.7736 11.1876 45.1246C11.0715 44.4272 11.0087 43.722 10.9997 43.0152C10.9926 42.7779 10.9832 41.988 10.9832 41.988V15.9998C10.9832 15.9998 10.9932 15.222 10.9998 14.9935C11.0084 14.2877 11.0708 13.5837 11.1865 12.8874C11.2942 12.2366 11.501 11.606 11.7996 11.0175C12.0938 10.4351 12.4806 9.90403 12.9449 9.44483C13.4087 8.98126 13.9425 8.59312 14.5269 8.29455C15.1144 7.99854 15.7432 7.79226 16.3922 7.68262C17.0918 7.5685 17.7991 7.50681 18.508 7.49805L19.526 7.48431H135.465L136.495 7.4986C137.198 7.50693 137.899 7.56807 138.592 7.68152C139.247 7.79254 139.883 8.00026 140.477 8.29785C141.648 8.89955 142.6 9.8515 143.201 11.0203C143.495 11.6047 143.699 12.2301 143.805 12.8753C143.922 13.5773 143.988 14.2869 144.001 14.9984C144.005 15.317 144.005 15.6592 144.005 15.9998C144.013 16.4217 144.013 16.8232 144.013 17.2281V40.7728C144.013 41.1816 144.013 41.5804 144.005 41.9824C144.005 42.3483 144.005 42.6834 144 43.0284C143.987 43.7272 143.923 44.4241 143.807 45.1135C143.702 45.7672 143.497 46.4009 143.198 46.9923C142.901 47.5688 142.514 48.0949 142.052 48.5512C141.591 49.0167 141.058 49.4051 140.474 49.7015C139.881 50.0008 139.247 50.2093 138.592 50.32C137.895 50.4336 137.19 50.495 136.483 50.5035C136.153 50.5112 135.807 50.5156 135.471 50.5156L134.248 50.5178L19.5254 50.5156Z" fill="#1D1D1D"/>
<path d="M37.9361 29.3451C37.9483 28.4061 38.1984 27.4855 38.6632 26.6688C39.128 25.8521 39.7925 25.1659 40.5947 24.6741C40.0851 23.9483 39.4127 23.351 38.6311 22.9296C37.8495 22.5082 36.9801 22.2744 36.092 22.2467C34.1976 22.0484 32.361 23.3771 31.3956 23.3771C30.4116 23.3771 28.9252 22.2664 27.3247 22.2992C26.2894 22.3326 25.2804 22.6328 24.3961 23.1706C23.5117 23.7084 22.7822 24.4655 22.2785 25.3681C20.0966 29.135 21.7241 34.6712 23.8141 37.7161C24.8598 39.2072 26.082 40.8727 27.6811 40.8136C29.2459 40.7489 29.8303 39.8186 31.7192 39.8186C33.5905 39.8186 34.1389 40.8136 35.7704 40.7761C37.4495 40.7489 38.5075 39.2784 39.5165 37.7733C40.2678 36.7109 40.8459 35.5367 41.2295 34.2942C40.254 33.8828 39.4215 33.1941 38.8358 32.314C38.2502 31.4339 37.9373 30.4014 37.9361 29.3451Z" fill="white"/>
<path d="M34.8552 20.2394C35.7708 19.1434 36.2218 17.7347 36.1126 16.3124C34.7139 16.4589 33.4218 17.1256 32.4939 18.1795C32.0403 18.6944 31.6928 19.2934 31.4714 19.9422C31.25 20.5911 31.159 21.2771 31.2036 21.9611C31.9033 21.9682 32.5954 21.817 33.2279 21.5188C33.8604 21.2206 34.4168 20.7831 34.8552 20.2394Z" fill="white"/>
<path d="M57.7243 37.0379H52.3843L51.1019 40.8139H48.8401L53.8981 26.8437H56.248L61.306 40.8139H59.0056L57.7243 37.0379ZM52.9373 35.2955H57.1702L55.0835 29.1673H55.0251L52.9373 35.2955Z" fill="white"/>
<path d="M72.2299 35.7251C72.2299 38.8903 70.5311 40.9238 67.9674 40.9238C67.318 40.9577 66.6721 40.8085 66.1037 40.4934C65.5354 40.1782 65.0675 39.7098 64.7537 39.1418H64.7052V44.1867H62.6086V30.6318H64.638V32.3259H64.6766C65.0048 31.7606 65.4806 31.2947 66.0533 30.9776C66.626 30.6605 67.2741 30.5042 67.9288 30.5253C70.5211 30.5253 72.2299 32.5687 72.2299 35.7251ZM70.075 35.7251C70.075 33.663 69.0063 32.3072 67.3758 32.3072C65.7739 32.3072 64.6964 33.6915 64.6964 35.7251C64.6964 37.7773 65.7739 39.1517 67.3758 39.1517C69.0063 39.1517 70.075 37.8059 70.075 35.7251Z" fill="white"/>
<path d="M83.4692 35.7251C83.4692 38.8902 81.7704 40.9238 79.2067 40.9238C78.5572 40.9577 77.9114 40.8085 77.343 40.4934C76.7746 40.1782 76.3068 39.7098 75.993 39.1418H75.9444V44.1867H73.8479V30.6318H75.8772V32.3259H75.9158C76.244 31.7606 76.7198 31.2947 77.2925 30.9776C77.8652 30.6605 78.5134 30.5042 79.1681 30.5253C81.7604 30.5253 83.4692 32.5687 83.4692 35.7251ZM81.3142 35.7251C81.3142 33.663 80.2456 32.3072 78.615 32.3072C77.0131 32.3072 75.9357 33.6915 75.9357 35.7251C75.9357 37.7773 77.0131 39.1517 78.615 39.1517C80.2456 39.1517 81.3143 37.8059 81.3143 35.7251H81.3142Z" fill="white"/>
<path d="M90.8984 36.92C91.0537 38.3054 92.4033 39.215 94.2476 39.215C96.0147 39.215 97.2861 38.3054 97.2861 37.0562C97.2861 35.9719 96.5193 35.3226 94.7037 34.8776L92.8881 34.4415C90.3156 33.8218 89.1213 32.6221 89.1213 30.6754C89.1213 28.265 91.2278 26.6093 94.2189 26.6093C97.1792 26.6093 99.2086 28.265 99.2769 30.6754H97.1605C97.0338 29.2812 95.8781 28.4396 94.1892 28.4396C92.5002 28.4396 91.3445 29.2911 91.3445 30.5303C91.3445 31.518 92.0827 32.0992 93.8884 32.5441L95.4319 32.922C98.3063 33.5999 99.5005 34.7513 99.5005 36.7947C99.5005 39.4083 97.4128 41.0453 94.0922 41.0453C90.9854 41.0453 88.8877 39.4468 88.7522 36.9199L90.8984 36.92Z" fill="white"/>
<path d="M104.025 28.2187V30.6291H105.968V32.2847H104.025V37.8998C104.025 38.7722 104.414 39.1787 105.268 39.1787C105.499 39.1746 105.729 39.1585 105.958 39.1303V40.776C105.574 40.8476 105.184 40.8799 104.793 40.8727C102.725 40.8727 101.919 40.0982 101.919 38.1228V32.2847H100.434V30.6291H101.919V28.2187H104.025Z" fill="white"/>
<path d="M107.093 35.7184C107.093 32.5137 108.986 30.4999 111.937 30.4999C114.899 30.4999 116.783 32.5137 116.783 35.7184C116.783 38.9319 114.909 40.9369 111.937 40.9369C108.967 40.9369 107.093 38.9319 107.093 35.7184ZM114.646 35.7184C114.646 33.5201 113.636 32.2226 111.937 32.2226C110.238 32.2226 109.229 33.53 109.229 35.7184C109.229 37.9256 110.238 39.2132 111.937 39.2132C113.636 39.2132 114.646 37.9256 114.646 35.7184H114.646Z" fill="white"/>
<path d="M118.512 30.6317H120.512V32.3654H120.56C120.695 31.8239 121.013 31.3454 121.461 31.0103C121.908 30.6752 122.458 30.5039 123.017 30.5251C123.259 30.5243 123.499 30.5505 123.735 30.6032V32.5587C123.43 32.4658 123.112 32.4231 122.793 32.4324C122.489 32.4201 122.185 32.4736 121.903 32.5894C121.621 32.7051 121.368 32.8803 121.16 33.1029C120.953 33.3256 120.796 33.5903 120.701 33.8791C120.605 34.1678 120.574 34.4737 120.608 34.7758V40.8171H118.512L118.512 30.6317Z" fill="white"/>
<path d="M133.401 37.819C133.119 39.668 131.314 40.9369 129.003 40.9369C126.032 40.9369 124.188 38.9517 124.188 35.7668C124.188 32.572 126.042 30.4999 128.915 30.4999C131.741 30.4999 133.518 32.4357 133.518 35.524V36.2403H126.304V36.3666C126.271 36.7415 126.318 37.1191 126.442 37.4744C126.566 37.8297 126.765 38.1546 127.025 38.4275C127.285 38.7004 127.6 38.915 127.949 39.0571C128.299 39.1992 128.675 39.2655 129.052 39.2516C129.547 39.2979 130.044 39.1835 130.469 38.9254C130.894 38.6673 131.224 38.2792 131.411 37.819L133.401 37.819ZM126.314 34.7791H131.42C131.439 34.4421 131.388 34.1048 131.27 33.7884C131.152 33.4721 130.969 33.1835 130.734 32.9407C130.499 32.698 130.216 32.5064 129.903 32.3779C129.59 32.2494 129.254 32.1868 128.915 32.194C128.574 32.192 128.235 32.2574 127.919 32.3865C127.603 32.5156 127.316 32.7058 127.074 32.9461C126.833 33.1865 126.641 33.4722 126.51 33.7868C126.38 34.1014 126.313 34.4387 126.314 34.7791V34.7791Z" fill="white"/>
<path d="M52.6698 16.3279C53.1093 16.2964 53.5504 16.3626 53.9612 16.5217C54.372 16.6809 54.7422 16.9289 55.0452 17.248C55.3482 17.5671 55.5764 17.9492 55.7134 18.3669C55.8504 18.7846 55.8927 19.2274 55.8372 19.6633C55.8372 21.8078 54.6749 23.0406 52.6698 23.0406H50.2383V16.3279H52.6698ZM51.2838 22.0912H52.553C52.8671 22.11 53.1814 22.0586 53.4731 21.9409C53.7648 21.8232 54.0264 21.6422 54.2391 21.4109C54.4517 21.1796 54.61 20.904 54.7024 20.6041C54.7947 20.3041 54.8188 19.9874 54.773 19.677C54.8155 19.3678 54.7889 19.0531 54.6952 18.7553C54.6014 18.4576 54.4427 18.1842 54.2306 17.9548C54.0184 17.7253 53.758 17.5456 53.468 17.4283C53.1779 17.311 52.8655 17.2592 52.553 17.2765H51.2838V22.0912Z" fill="white"/>
<path d="M57.0182 20.5034C56.9863 20.1705 57.0245 19.8346 57.1303 19.5172C57.2362 19.1999 57.4074 18.9082 57.633 18.6607C57.8585 18.4132 58.1335 18.2155 58.4402 18.0801C58.7469 17.9448 59.0785 17.8749 59.4139 17.8749C59.7492 17.8749 60.0809 17.9448 60.3876 18.0801C60.6943 18.2155 60.9692 18.4132 61.1948 18.6607C61.4204 18.9082 61.5916 19.1999 61.6974 19.5172C61.8033 19.8346 61.8415 20.1705 61.8096 20.5034C61.8421 20.8366 61.8044 21.173 61.6988 21.4908C61.5932 21.8086 61.4221 22.1009 61.1965 22.3489C60.9708 22.5969 60.6957 22.795 60.3887 22.9306C60.0817 23.0662 59.7496 23.1363 59.4139 23.1363C59.0781 23.1363 58.7461 23.0662 58.4391 22.9306C58.1321 22.795 57.8569 22.5969 57.6313 22.3489C57.4057 22.1009 57.2346 21.8086 57.129 21.4908C57.0234 21.173 56.9857 20.8366 57.0182 20.5034ZM60.7783 20.5034C60.7783 19.4053 60.2837 18.7631 59.4155 18.7631C58.5441 18.7631 58.0538 19.4053 58.0538 20.5034C58.0538 21.6103 58.5441 22.2475 59.4155 22.2475C60.2837 22.2474 60.7784 21.6058 60.7784 20.5034H60.7783Z" fill="white"/>
<path d="M68.1796 23.0345H67.1396L66.0897 19.3035H66.0104L64.9648 23.0345H63.9347L62.5345 17.9687H63.5513L64.4614 21.8342H64.5363L65.5807 17.9687H66.5425L67.5869 21.8342H67.6663L68.5719 17.9687H69.5744L68.1796 23.0345Z" fill="white"/>
<path d="M70.7528 17.9699H71.7179V18.7746H71.7928C71.9199 18.4856 72.1342 18.2433 72.406 18.0815C72.6777 17.9198 72.9933 17.8465 73.3088 17.8721C73.5559 17.8536 73.8041 17.8907 74.0349 17.9809C74.2658 18.071 74.4733 18.2117 74.6422 18.3927C74.811 18.5736 74.9369 18.7901 75.0105 19.0262C75.084 19.2622 75.1034 19.5117 75.0671 19.7563V23.0356H74.0645V20.0073C74.0645 19.1932 73.7098 18.7884 72.9683 18.7884C72.8005 18.7806 72.633 18.8091 72.4772 18.8719C72.3215 18.9347 72.1812 19.0303 72.066 19.1523C71.9508 19.2742 71.8633 19.4195 71.8097 19.5783C71.7561 19.7371 71.7376 19.9055 71.7553 20.0721V23.0357H70.7528L70.7528 17.9699Z" fill="white"/>
<path d="M76.6641 15.9921H77.6667V23.0355H76.6641V15.9921Z" fill="white"/>
<path d="M79.0572 20.5035C79.0253 20.1705 79.0635 19.8346 79.1694 19.5173C79.2753 19.1999 79.4466 18.9082 79.6721 18.6607C79.8977 18.4132 80.1727 18.2155 80.4794 18.0801C80.7861 17.9448 81.1178 17.8749 81.4532 17.8749C81.7886 17.8749 82.1203 17.9448 82.427 18.0801C82.7337 18.2155 83.0087 18.4132 83.2342 18.6607C83.4598 18.9082 83.6311 19.1999 83.737 19.5173C83.8428 19.8346 83.8811 20.1705 83.8492 20.5035C83.8817 20.8367 83.8439 21.1731 83.7383 21.4909C83.6326 21.8088 83.4615 22.101 83.2359 22.349C83.0102 22.597 82.7351 22.7951 82.428 22.9307C82.121 23.0663 81.789 23.1363 81.4532 23.1363C81.1174 23.1363 80.7854 23.0663 80.4783 22.9307C80.1713 22.7951 79.8962 22.597 79.6705 22.349C79.4449 22.101 79.2737 21.8088 79.1681 21.4909C79.0625 21.1731 79.0247 20.8367 79.0572 20.5035ZM82.8174 20.5035C82.8174 19.4054 82.3227 18.7632 81.4546 18.7632C80.5831 18.7632 80.0929 19.4054 80.0929 20.5035C80.0929 21.6103 80.5831 22.2475 81.4546 22.2475C82.3227 22.2475 82.8174 21.6059 82.8174 20.5035H82.8174Z" fill="white"/>
<path d="M84.9053 21.6059C84.9053 20.694 85.5862 20.1683 86.7947 20.0936L88.1708 20.0145V19.5773C88.1708 19.0422 87.816 18.7401 87.1308 18.7401C86.5711 18.7401 86.1833 18.945 86.072 19.3032H85.1014C85.2039 18.433 86.0247 17.8749 87.177 17.8749C88.4506 17.8749 89.1689 18.5072 89.1689 19.5773V23.0385H88.2038V22.3266H88.1245C87.9635 22.582 87.7374 22.7901 87.4694 22.9299C87.2013 23.0696 86.9008 23.1359 86.5986 23.122C86.3854 23.1441 86.1698 23.1214 85.9659 23.0554C85.762 22.9893 85.5742 22.8814 85.4147 22.7386C85.2551 22.5957 85.1274 22.4211 85.0396 22.226C84.9519 22.031 84.9061 21.8197 84.9053 21.6059ZM88.1708 21.173V20.7495L86.9303 20.8286C86.2307 20.8753 85.9134 21.1126 85.9134 21.5592C85.9134 22.0151 86.31 22.2804 86.8554 22.2804C87.0152 22.2966 87.1766 22.2805 87.33 22.2331C87.4835 22.1858 87.6258 22.1081 87.7485 22.0048C87.8712 21.9015 87.9719 21.7746 88.0444 21.6317C88.117 21.4888 88.1599 21.3328 88.1708 21.173Z" fill="white"/>
<path d="M90.4873 20.5004C90.4873 18.8997 91.3125 17.8856 92.596 17.8856C92.9135 17.871 93.2286 17.9469 93.5045 18.1043C93.7803 18.2616 94.0056 18.4941 94.1538 18.7744H94.2288V15.9921H95.2313V23.0355H94.2706V22.2351H94.1913C94.0316 22.5135 93.7985 22.7431 93.5173 22.8989C93.2361 23.0547 92.9175 23.1308 92.596 23.1189C91.3037 23.119 90.4873 22.1049 90.4873 20.5004ZM91.523 20.5004C91.523 21.5748 92.0309 22.2214 92.8803 22.2214C93.7253 22.2214 94.2475 21.5655 94.2475 20.5048C94.2475 19.449 93.7198 18.7838 92.8803 18.7838C92.0364 18.7838 91.5229 19.4347 91.5229 20.5004H91.523Z" fill="white"/>
<path d="M99.3833 20.5034C99.3513 20.1705 99.3895 19.8346 99.4954 19.5172C99.6013 19.1999 99.7725 18.9082 99.998 18.6607C100.224 18.4132 100.499 18.2155 100.805 18.0801C101.112 17.9448 101.444 17.8749 101.779 17.8749C102.114 17.8749 102.446 17.9448 102.753 18.0801C103.059 18.2155 103.334 18.4132 103.56 18.6607C103.785 18.9082 103.957 19.1999 104.063 19.5172C104.168 19.8346 104.207 20.1705 104.175 20.5034C104.207 20.8366 104.169 21.173 104.064 21.4908C103.958 21.8086 103.787 22.1009 103.562 22.3489C103.336 22.5969 103.061 22.795 102.754 22.9306C102.447 23.0662 102.115 23.1363 101.779 23.1363C101.443 23.1363 101.111 23.0662 100.804 22.9306C100.497 22.795 100.222 22.5969 99.9964 22.3489C99.7707 22.1009 99.5996 21.8086 99.4941 21.4908C99.3885 21.173 99.3507 20.8366 99.3833 20.5034ZM103.143 20.5034C103.143 19.4053 102.649 18.7631 101.781 18.7631C100.909 18.7631 100.419 19.4053 100.419 20.5034C100.419 21.6103 100.909 22.2475 101.781 22.2475C102.649 22.2474 103.143 21.6058 103.143 20.5034Z" fill="white"/>
<path d="M105.518 17.9699H106.483V18.7746H106.558C106.685 18.4856 106.899 18.2433 107.171 18.0815C107.443 17.9198 107.758 17.8465 108.074 17.8721C108.321 17.8536 108.569 17.8907 108.8 17.9809C109.031 18.071 109.238 18.2117 109.407 18.3927C109.576 18.5736 109.702 18.7901 109.775 19.0262C109.849 19.2622 109.868 19.5117 109.832 19.7563V23.0356H108.829V20.0073C108.829 19.1932 108.475 18.7884 107.733 18.7884C107.565 18.7806 107.398 18.8091 107.242 18.8719C107.086 18.9347 106.946 19.0303 106.831 19.1523C106.716 19.2742 106.628 19.4195 106.575 19.5783C106.521 19.7371 106.502 19.9055 106.52 20.0721V23.0357H105.518V17.9699Z" fill="white"/>
<path d="M115.496 16.7109V17.9952H116.596V18.8373H115.496V21.4421C115.496 21.9728 115.715 22.2051 116.214 22.2051C116.342 22.2047 116.469 22.197 116.596 22.1821V23.0148C116.416 23.0469 116.234 23.064 116.051 23.0659C114.936 23.0659 114.492 22.6748 114.492 21.6981V18.8372H113.685V17.9951H114.492V16.7109H115.496Z" fill="white"/>
<path d="M117.967 15.9921H118.961V18.7838H119.04C119.173 18.492 119.394 18.2484 119.671 18.086C119.948 17.9236 120.269 17.8504 120.589 17.8763C120.835 17.8629 121.081 17.9039 121.309 17.9962C121.537 18.0885 121.742 18.2299 121.909 18.4102C122.076 18.5906 122.201 18.8056 122.276 19.0397C122.35 19.2739 122.371 19.5215 122.339 19.7648V23.0355H121.335V20.0115C121.335 19.2023 120.957 18.7925 120.249 18.7925C120.076 18.7784 119.903 18.8021 119.741 18.8617C119.579 18.9214 119.431 19.0157 119.31 19.1381C119.188 19.2604 119.094 19.4078 119.036 19.57C118.977 19.7321 118.954 19.9051 118.97 20.0768V23.0354H117.967L117.967 15.9921Z" fill="white"/>
<path d="M128.181 21.6708C128.045 22.1338 127.75 22.5343 127.347 22.8022C126.945 23.0701 126.461 23.1884 125.98 23.1364C125.645 23.1452 125.312 23.0813 125.005 22.949C124.698 22.8168 124.423 22.6195 124.199 22.3707C123.976 22.1219 123.81 21.8277 123.712 21.5084C123.614 21.1891 123.587 20.8524 123.633 20.5216C123.588 20.1899 123.616 19.8525 123.713 19.5322C123.811 19.2119 123.976 18.9163 124.199 18.6654C124.421 18.4144 124.694 18.214 125.001 18.0776C125.307 17.9413 125.64 17.8722 125.975 17.875C127.389 17.875 128.241 18.838 128.241 20.4288V20.7776H124.654V20.8336C124.639 21.0196 124.662 21.2067 124.723 21.383C124.784 21.5594 124.882 21.721 125.009 21.8577C125.136 21.9943 125.291 22.1029 125.463 22.1765C125.635 22.25 125.82 22.287 126.007 22.2849C126.247 22.3136 126.49 22.2705 126.705 22.1612C126.92 22.0518 127.098 21.8811 127.216 21.6708L128.181 21.6708ZM124.654 20.0382H127.22C127.233 19.8682 127.21 19.6974 127.152 19.5369C127.095 19.3763 127.004 19.2295 126.886 19.1059C126.769 18.9824 126.626 18.8847 126.468 18.8192C126.31 18.7538 126.141 18.722 125.97 18.7259C125.796 18.7237 125.624 18.7562 125.464 18.8214C125.303 18.8866 125.157 18.9832 125.035 19.1055C124.912 19.2278 124.815 19.3733 124.75 19.5335C124.685 19.6937 124.652 19.8653 124.654 20.0382H124.654Z" fill="white"/>
</g>
<defs>
<filter id="filter0_d_1_366" x="0" y="0.499939" width="155" height="65.0001" filterUnits="userSpaceOnUse" color-interpolation-filters="sRGB">
<feFlood flood-opacity="0" result="BackgroundImageFix"/>
<feColorMatrix in="SourceAlpha" type="matrix" values="0 0 0 0 0 0 0 0 0 0 0 0 0 0 0 0 0 0 127 0" result="hardAlpha"/>
<feOffset dy="4"/>
<feGaussianBlur stdDeviation="5"/>
<feComposite in2="hardAlpha" operator="out"/>
<feColorMatrix type="matrix" values="0 0 0 0 0.0392157 0 0 0 0 0.0392157 0 0 0 0 0.0392157 0 0 0 0.25 0"/>
<feBlend mode="normal" in2="BackgroundImageFix" result="effect1_dropShadow_1_366"/>
<feBlend mode="normal" in="SourceGraphic" in2="effect1_dropShadow_1_366" result="shape"/>
</filter>
</defs>
</svg>
