<svg width="135" height="46" viewBox="0 0 135 46" fill="none" xmlns="http://www.w3.org/2000/svg">
<path d="M124.249 0.500085H10.7566C10.3429 0.500085 9.9342 0.500085 9.5216 0.502335C9.17621 0.504585 8.83358 0.511121 8.48488 0.516623C7.72733 0.525512 6.97157 0.591971 6.22416 0.715421C5.4778 0.841559 4.75482 1.07937 4.07967 1.4208C3.40534 1.76512 2.7892 2.21252 2.25358 2.74679C1.71514 3.27955 1.26632 3.89535 0.924356 4.57052C0.581453 5.24433 0.343683 5.96639 0.219258 6.71175C0.0936495 7.45617 0.0260586 8.20917 0.0170916 8.964C0.00662229 9.30893 0.00551669 9.655 0 9.99997V36.0035C0.00551669 36.3528 0.00662229 36.6912 0.0170916 37.0406C0.0260614 37.7954 0.0936522 38.5484 0.219258 39.2928C0.343339 40.0386 0.581124 40.7611 0.924356 41.4351C1.26616 42.1081 1.71505 42.7214 2.25358 43.2512C2.78717 43.7878 3.40371 44.2356 4.07967 44.5772C4.75481 44.9196 5.47772 45.1588 6.22416 45.2869C6.9717 45.4094 7.72738 45.4758 8.48488 45.4858C8.83358 45.4935 9.17621 45.4978 9.5216 45.4978C9.93419 45.5001 10.343 45.5001 10.7566 45.5001H124.249C124.655 45.5001 125.067 45.5001 125.472 45.4978C125.816 45.4978 126.169 45.4935 126.512 45.4858C127.268 45.4764 128.023 45.4099 128.769 45.2869C129.518 45.1579 130.243 44.9188 130.921 44.5772C131.597 44.2354 132.213 43.7877 132.746 43.2512C133.283 42.7193 133.733 42.1065 134.079 41.4351C134.42 40.7606 134.655 40.0381 134.777 39.2928C134.903 38.5483 134.973 37.7955 134.987 37.0406C134.991 36.6912 134.991 36.3528 134.991 36.0035C135 35.5948 135 35.1883 135 34.773V11.2282C135 10.8162 135 10.4076 134.991 9.99997C134.991 9.655 134.991 9.30893 134.987 8.96395C134.973 8.20906 134.903 7.45623 134.777 6.71171C134.655 5.96678 134.419 5.24478 134.079 4.57047C133.383 3.21718 132.278 2.11561 130.921 1.4207C130.243 1.0801 129.518 0.842356 128.769 0.71532C128.023 0.591326 127.269 0.524844 126.512 0.516465C126.169 0.510975 125.816 0.504383 125.472 0.502189C125.067 0.499939 124.655 0.499939 124.249 0.499939V0.500085Z" fill="#A6A6A6"/>
<path d="M9.52543 44.5156C9.1817 44.5156 8.84627 44.5112 8.50524 44.5035C7.79877 44.4943 7.09395 44.433 6.39656 44.32C5.74628 44.2084 5.11633 44.0006 4.52749 43.7037C3.94406 43.4092 3.41192 43.023 2.95146 42.56C2.48433 42.1024 2.09543 41.5717 1.80016 40.9889C1.50164 40.4023 1.29504 39.7736 1.18757 39.1246C1.07151 38.4272 1.00872 37.722 0.999732 37.0152C0.992579 36.7779 0.983215 35.988 0.983215 35.988V9.99982C0.983215 9.99982 0.993188 9.22199 0.999788 8.99346C1.00839 8.28773 1.07082 7.58367 1.18653 6.88739C1.2942 6.2366 1.50096 5.60603 1.79964 5.01752C2.09382 4.43513 2.48057 3.90403 2.94488 3.44483C3.40867 2.98126 3.94251 2.59312 4.52694 2.29455C5.11442 1.99854 5.74318 1.79226 6.39215 1.68262C7.09183 1.5685 7.7991 1.50681 8.50802 1.49805L9.52598 1.48431H125.465L126.495 1.4986C127.198 1.50693 127.899 1.56807 128.592 1.68152C129.247 1.79254 129.883 2.00026 130.477 2.29785C131.648 2.89955 132.6 3.8515 133.201 5.02027C133.495 5.60471 133.699 6.23013 133.805 6.8753C133.922 7.5773 133.988 8.28689 134.001 8.99841C134.005 9.31701 134.005 9.65924 134.005 9.99982C134.013 10.4217 134.013 10.8232 134.013 11.2281V34.7728C134.013 35.1816 134.013 35.5804 134.005 35.9824C134.005 36.3483 134.005 36.6834 134 37.0284C133.987 37.7272 133.923 38.4241 133.807 39.1135C133.702 39.7672 133.497 40.4009 133.198 40.9923C132.901 41.5688 132.514 42.0949 132.052 42.5512C131.591 43.0167 131.058 43.4051 130.474 43.7015C129.881 44.0008 129.247 44.2093 128.592 44.32C127.895 44.4336 127.19 44.495 126.483 44.5035C126.153 44.5112 125.807 44.5156 125.471 44.5156L124.248 44.5178L9.52543 44.5156Z" fill="#1D1D1D"/>
<path d="M11.7939 34.6111L11.7231 34.5436C11.4459 34.2511 11.2822 33.7969 11.2822 33.2088V33.3472V12.3373V12.4765C11.2822 11.8396 11.473 11.3599 11.7928 11.0722L23.5959 22.8421L11.7939 34.6111Z" fill="url(#paint0_linear_1_400)"/>
<path d="M27.5309 26.7667L23.5959 22.8421L27.5305 18.9182L32.2807 21.6093C32.884 21.9511 33.2226 22.3916 33.2792 22.8417V22.8435C33.2226 23.2926 32.884 23.7335 32.2807 24.0752L27.5309 26.7667Z" fill="url(#paint1_linear_1_400)"/>
<path d="M12.6354 34.9197C12.3057 34.9201 12.0182 34.813 11.7939 34.6111L23.5959 22.8421L27.5309 26.7667L13.7027 34.601C13.3201 34.8173 12.9576 34.9197 12.6354 34.9197ZM11.7903 34.7476C11.7695 34.7287 11.749 34.7086 11.7289 34.6878L11.7903 34.7476Z" fill="url(#paint2_linear_1_400)"/>
<path d="M23.5959 22.8421L11.7928 11.0722C12.0171 10.8707 12.3044 10.764 12.6338 10.764C12.9568 10.764 13.3196 10.8668 13.7029 11.0835L27.5305 18.9182L23.5959 22.8421ZM13.7029 10.9448C13.3196 10.728 12.9568 10.6252 12.6338 10.6252H12.6297C12.6297 10.6252 12.633 10.6252 12.6353 10.6252C12.9576 10.6252 13.3199 10.728 13.7029 10.9448Z" fill="url(#paint3_linear_1_400)"/>
<path d="M12.6351 35.0589C12.3053 35.0589 12.0176 34.952 11.7933 34.7502L11.7903 34.7476L11.7289 34.6878C11.727 34.6859 11.7253 34.6835 11.723 34.6813L11.7939 34.6111C12.0182 34.813 12.3057 34.9201 12.6354 34.9197C12.9576 34.9197 13.3201 34.8173 13.7027 34.601L27.5309 26.7667L27.6195 26.855L13.7028 34.7396C13.3541 34.9366 13.0224 35.0396 12.7229 35.0567C12.6935 35.0581 12.6636 35.0589 12.6351 35.0589Z" fill="url(#paint4_linear_1_400)"/>
<path d="M11.723 34.6813C11.4458 34.3888 11.2822 33.9357 11.2822 33.3472V33.2088C11.2822 33.7969 11.4459 34.2511 11.7231 34.5436L11.7939 34.6111L11.723 34.6813Z" fill="url(#paint5_linear_1_400)"/>
<path d="M27.6195 26.855L27.5309 26.7667L32.2807 24.0752C32.884 23.7335 33.2226 23.2926 33.2792 22.8435C33.2792 23.0083 33.2423 23.1731 33.1691 23.3334C33.0213 23.6566 32.7251 23.962 32.2807 24.214L27.6195 26.855Z" fill="url(#paint6_linear_1_400)"/>
<path d="M33.2792 22.8417C33.2226 22.3916 32.884 21.9511 32.2807 21.6093L27.5305 18.9182L27.6194 18.8297L32.2806 21.4709C32.9456 21.8479 33.2788 22.3448 33.2792 22.8417Z" fill="url(#paint7_linear_1_400)"/>
<path d="M11.2866 12.168C11.3418 11.1921 11.8739 10.6283 12.6266 10.6249C12.3003 10.6268 12.016 10.7337 11.7935 10.9337L11.7908 10.936C11.7673 10.9571 11.7451 10.9794 11.7231 11.0024C11.473 11.2662 11.3153 11.6615 11.2866 12.168Z" fill="#404040"/>
<path d="M27.5305 18.9182L13.7029 11.0835C13.3196 10.8668 12.9568 10.764 12.6338 10.764C12.3044 10.764 12.0171 10.8707 11.7928 11.0722L11.7231 11.0024C11.7451 10.9794 11.7673 10.9571 11.7908 10.936L11.7935 10.9337C12.016 10.7337 12.3003 10.6268 12.6266 10.6249L12.6297 10.6252H12.6338C12.9568 10.6252 13.3196 10.728 13.7029 10.9448L27.6194 18.8297L27.5305 18.9182Z" fill="url(#paint8_linear_1_400)"/>
<path d="M11.2822 12.4765V12.3373V12.3325V12.3325C11.2822 12.2801 11.2837 12.2278 11.2863 12.1781V12.1758L11.2866 12.1736V12.1692V12.1692C11.3153 11.6626 11.473 11.2662 11.7231 11.0024L11.7928 11.0722C11.473 11.3599 11.2822 11.8396 11.2822 12.4765ZM11.7935 10.9337L11.7908 10.936L11.7935 10.9337Z" fill="url(#paint9_linear_1_400)"/>
<path d="M104.846 34.6831H106.713V22.2106H104.846V34.6831ZM121.661 26.7034L119.521 32.1109H119.457L117.236 26.7034H115.225L118.556 34.2614L116.657 38.4654H118.605L123.737 26.7034H121.661ZM111.074 33.2664C110.462 33.2664 109.609 32.9616 109.609 32.2072C109.609 31.2445 110.672 30.8754 111.588 30.8754C112.41 30.8754 112.795 31.0519 113.294 31.2929C113.149 32.448 112.152 33.2664 111.074 33.2664ZM111.299 26.4306C109.947 26.4306 108.548 27.0245 107.968 28.3403L109.625 29.0301C109.979 28.3403 110.639 28.1154 111.331 28.1154C112.297 28.1154 113.278 28.6934 113.294 29.7203V29.8485C112.956 29.6559 112.233 29.3672 111.347 29.3672C109.561 29.3672 107.742 30.3458 107.742 32.1752C107.742 33.844 109.207 34.9192 110.848 34.9192C112.103 34.9192 112.795 34.3576 113.23 33.6998H113.294V34.6624H115.096V29.8804C115.096 27.6664 113.439 26.4306 111.299 26.4306ZM99.7612 28.2217H97.1059V23.9465H99.7612C101.157 23.9465 101.949 25.0988 101.949 26.0841C101.949 27.0506 101.157 28.2217 99.7612 28.2217ZM99.7132 22.2106H95.2399V34.6831H97.1059V29.9577H99.7132C101.782 29.9577 103.816 28.4638 103.816 26.0841C103.816 23.7044 101.782 22.2106 99.7132 22.2106ZM75.3198 33.2687C74.0301 33.2687 72.9502 32.1919 72.9502 30.7129C72.9502 29.2184 74.0301 28.1252 75.3198 28.1252C76.5932 28.1252 77.5925 29.2184 77.5925 30.7129C77.5925 32.1919 76.5932 33.2687 75.3198 33.2687ZM77.4635 27.4018H77.399C76.9801 26.9037 76.1738 26.4536 75.1585 26.4536C73.0308 26.4536 71.0806 28.318 71.0806 30.7129C71.0806 33.0918 73.0308 34.9403 75.1585 34.9403C76.1738 34.9403 76.9801 34.4901 77.399 33.9761H77.4635V34.5868C77.4635 36.2105 76.5932 37.0784 75.1909 37.0784C74.0465 37.0784 73.3372 36.2584 73.0468 35.5674L71.4191 36.2424C71.8865 37.3675 73.1277 38.7499 75.1909 38.7499C77.383 38.7499 79.2366 37.4638 79.2366 34.3296V26.7108H77.4635V27.4018ZM80.526 34.6831H82.3957V22.2102H80.526V34.6831ZM85.1521 30.5683C85.1037 28.9287 86.4255 28.0931 87.3764 28.0931C88.1183 28.0931 88.7466 28.4626 88.9558 28.9935L85.1521 30.5683ZM90.9548 29.154C90.6006 28.2054 89.52 26.4536 87.3118 26.4536C85.1197 26.4536 83.2985 28.1735 83.2985 30.697C83.2985 33.0759 85.1037 34.9403 87.5213 34.9403C89.472 34.9403 90.6006 33.7508 91.0678 33.0598L89.6171 32.0952C89.1338 32.8026 88.4725 33.2687 87.5213 33.2687C86.5704 33.2687 85.8936 32.8346 85.4582 31.983L91.1479 29.6361L90.9548 29.154ZM45.6236 27.7556V29.5558H49.9433C49.8143 30.5683 49.4758 31.3076 48.96 31.8221C48.3316 32.4491 47.3483 33.1401 45.6236 33.1401C42.9639 33.1401 40.8848 31.0025 40.8848 28.3503C40.8848 25.6982 42.9639 23.5603 45.6236 23.5603C47.0582 23.5603 48.1056 24.123 48.8794 24.8463L50.1528 23.5766C49.0729 22.5477 47.6382 21.7601 45.6236 21.7601C41.9806 21.7601 38.9182 24.7177 38.9182 28.3503C38.9182 31.983 41.9806 34.9403 45.6236 34.9403C47.5902 34.9403 49.0729 34.2977 50.2333 33.0918C51.4261 31.9024 51.797 30.2308 51.797 28.8808C51.797 28.4626 51.7649 28.0772 51.7001 27.7556H45.6236ZM56.7081 33.2687C55.4183 33.2687 54.3061 32.2079 54.3061 30.697C54.3061 29.17 55.4183 28.1252 56.7081 28.1252C57.9974 28.1252 59.1096 29.17 59.1096 30.697C59.1096 32.2079 57.9974 33.2687 56.7081 33.2687ZM56.7081 26.4536C54.3545 26.4536 52.4363 28.2377 52.4363 30.697C52.4363 33.1401 54.3545 34.9403 56.7081 34.9403C59.0612 34.9403 60.9794 33.1401 60.9794 30.697C60.9794 28.2377 59.0612 26.4536 56.7081 26.4536ZM66.026 33.2687C64.7368 33.2687 63.6244 32.2079 63.6244 30.697C63.6244 29.17 64.7368 28.1252 66.026 28.1252C67.3154 28.1252 68.4276 29.17 68.4276 30.697C68.4276 32.2079 67.3154 33.2687 66.026 33.2687ZM66.026 26.4536C63.6725 26.4536 61.7548 28.2377 61.7548 30.697C61.7548 33.1401 63.6725 34.9403 66.026 34.9403C68.3792 34.9403 70.2974 33.1401 70.2974 30.697C70.2974 28.2377 68.3792 26.4536 66.026 26.4536Z" fill="white"/>
<path d="M46.7523 13.9809C46.7523 14.8559 46.4924 15.5528 45.972 16.0726C45.3808 16.6907 44.6104 16.9999 43.6632 16.9999C42.7562 16.9999 41.985 16.6866 41.3508 16.0591C40.7155 15.432 40.3984 14.6544 40.3984 13.7266C40.3984 12.7984 40.7155 12.0213 41.3508 11.3938C41.985 10.7667 42.7562 10.4529 43.6632 10.4529C44.1133 10.4529 44.5442 10.5406 44.9533 10.7157C45.3624 10.8912 45.6905 11.1241 45.936 11.4158L45.3837 11.9669C44.9676 11.4713 44.3948 11.2236 43.6632 11.2236C43.0017 11.2236 42.4297 11.4554 41.947 11.9192C41.4641 12.3836 41.2228 12.9857 41.2228 13.7266C41.2228 14.4676 41.4641 15.0697 41.947 15.5341C42.4297 15.9979 43.0017 16.2297 43.6632 16.2297C44.365 16.2297 44.95 15.9966 45.4184 15.53C45.7225 15.2259 45.8983 14.8034 45.9454 14.2607H43.6632V13.5079H46.7085C46.7379 13.6716 46.7523 13.8287 46.7523 13.9809Z" fill="white"/>
<path d="M46.7515 13.9858H46.6468C46.646 14.8409 46.3955 15.505 45.8972 16.0037L45.896 16.0045L45.8956 16.0053C45.3232 16.6021 44.5875 16.8992 43.6625 16.9004C42.7797 16.8992 42.0407 16.5989 41.4237 15.9902C40.8081 15.3802 40.5036 14.6356 40.5024 13.7316C40.5036 12.8271 40.8081 12.0829 41.4237 11.4734C42.0407 10.8642 42.7797 10.5635 43.6625 10.5623C44.099 10.5623 44.5147 10.6472 44.9112 10.8165C45.308 10.9871 45.6215 11.2106 45.8551 11.4881L45.9353 11.4207L45.8613 11.3469L45.3089 11.8984L45.3829 11.9719L45.4636 11.905C45.0282 11.3848 44.417 11.1225 43.6625 11.1241C42.9765 11.1233 42.373 11.3677 41.8738 11.8491C41.3698 12.3322 41.1165 12.9682 41.1174 13.7316C41.1165 14.4949 41.3698 15.1309 41.8738 15.614C42.373 16.0955 42.9765 16.3399 43.6625 16.339C44.3875 16.3403 45.0053 16.095 45.4917 15.6088C45.8166 15.2839 46.0008 14.834 46.0491 14.2746L46.0588 14.1611H43.7672V13.6173H46.7078V13.5129L46.6046 13.5312C46.6333 13.6896 46.6468 13.8401 46.6468 13.9858H46.7515H46.8563C46.8563 13.827 46.8415 13.6639 46.8108 13.4942L46.7953 13.4084H43.5578V14.2656V14.37H45.9446V14.2656L45.8403 14.2566C45.7941 14.7822 45.6263 15.1779 45.3436 15.4611C44.8936 15.9082 44.3413 16.1289 43.6625 16.1301C43.0255 16.1293 42.485 15.9106 42.0191 15.4639C41.5576 15.0187 41.328 14.4505 41.3268 13.7316C41.328 13.0127 41.5576 12.4444 42.0191 11.9992C42.485 11.5525 43.0255 11.3338 43.6625 11.333C44.3707 11.3347 44.9055 11.568 45.3028 12.0392L45.3764 12.1266L46.0094 11.4946L46.0772 11.4269L46.0154 11.3538C45.7581 11.0478 45.4153 10.805 44.9938 10.6247C44.5716 10.4439 44.1261 10.3534 43.6625 10.3534C42.7314 10.3526 41.9278 10.6789 41.276 11.3248C40.6218 11.9695 40.2921 12.7798 40.293 13.7316C40.2921 14.683 40.6218 15.4937 41.2765 16.1387C41.9278 16.7842 42.7314 17.1101 43.6625 17.1093C44.6322 17.1101 45.4365 16.789 46.047 16.1497L45.9712 16.0775L46.0453 16.1513C46.5878 15.6107 46.857 14.8805 46.8563 13.9858H46.7515Z" fill="white"/>
<path d="M51.5808 11.3625H48.7189V13.3494H51.2998V14.1025H48.7189V16.0894H51.5808V16.8593H47.9121V10.5926H51.5808V11.3625Z" fill="white"/>
<path d="M51.58 11.3674V11.263H48.6134V13.4588H51.1943V14.0027L48.6134 14.003V16.1988H51.4753V16.7598H48.0161V10.702H51.4753V11.3674H51.58V11.263V11.3674H51.6848V10.5975V10.4931H47.8066V16.9687H51.6848V16.0944V15.9899H48.8229V14.2119H51.4038V13.3544V13.2499H48.8229V11.4719H51.6848V11.3674H51.58Z" fill="white"/>
<path d="M54.9842 16.8593H54.1761V11.3625H52.4209V10.5926H56.7394V11.3625H54.9842V16.8593Z" fill="white"/>
<path d="M54.9825 16.8642V16.7598H54.2791V11.263H52.5239V10.702H56.6329V11.263H54.8777V16.8642H54.9825V16.7598V16.8642H55.0872V11.4719H56.8424V10.5975V10.4931H52.3145V11.3674V11.4719H54.0697V16.9687H54.9825H55.0872V16.8642H54.9825Z" fill="white"/>
<path d="M59.8633 16.8593V10.5926H60.6705V16.8593H59.8633Z" fill="white"/>
<path d="M59.8626 16.8642H59.9673V10.702H60.565V16.7598H59.8626V16.8642H59.9673H59.8626V16.9687H60.6698H60.7745V10.4931H59.8626H59.7578V16.9687H59.8626V16.8642Z" fill="white"/>
<path d="M64.2516 16.8593H63.4436V11.3625H61.6885V10.5926H66.0068V11.3625H64.2516V16.8593Z" fill="white"/>
<path d="M64.2548 16.8642V16.7598H63.5515V11.263H61.7964V10.702H65.9053V11.263H64.1501V16.8642H64.2548V16.7598V16.8642H64.3595V11.4719H66.1148V10.5975V10.4931H61.5869V11.3674V11.4719H63.342V16.9687H64.2548H64.3595V16.8642H64.2548Z" fill="white"/>
<path d="M70.1714 15.5255C70.6365 15.9951 71.2057 16.2297 71.8787 16.2297C72.5517 16.2297 73.1212 15.9951 73.5856 15.5255C74.0512 15.0559 74.2844 14.4557 74.2844 13.7266C74.2844 12.9976 74.0512 12.3974 73.5856 11.9278C73.1212 11.4582 72.5517 11.2236 71.8787 11.2236C71.2057 11.2236 70.6365 11.4582 70.1714 11.9278C69.707 12.3974 69.4738 12.9976 69.4738 13.7266C69.4738 14.4557 69.707 15.0559 70.1714 15.5255ZM74.1829 16.0501C73.5651 16.6837 72.7967 16.9999 71.8787 16.9999C70.9597 16.9999 70.1918 16.6837 69.5753 16.0501C68.957 15.4173 68.6494 14.6426 68.6494 13.7266C68.6494 12.8107 68.957 12.0359 69.5753 11.4032C70.1918 10.7695 70.9597 10.4529 71.8787 10.4529C72.7919 10.4529 73.5582 10.7712 74.1789 11.4072C74.7987 12.0433 75.1088 12.8164 75.1088 13.7266C75.1088 14.6426 74.7994 15.4173 74.1829 16.0501Z" fill="white"/>
<path d="M70.1706 15.5304L70.0961 15.6038C70.5786 16.0922 71.1804 16.3403 71.8779 16.339C72.5751 16.3403 73.1777 16.0922 73.6593 15.6038C74.1449 15.115 74.3891 14.4826 74.3884 13.7316C74.3891 12.9805 74.1449 12.3481 73.6593 11.8593C73.1777 11.3709 72.5751 11.1228 71.8779 11.1241C71.1804 11.1228 70.5786 11.3709 70.0961 11.8593C69.6117 12.3481 69.3671 12.9805 69.3683 13.7316C69.3671 14.4826 69.6117 15.115 70.0961 15.6038L70.1706 15.5304L70.2451 15.457C69.8008 15.0061 69.5786 14.439 69.5778 13.7316C69.5786 13.0242 69.8008 12.457 70.2451 12.0061C70.6935 11.5553 71.229 11.3342 71.8779 11.333C72.5264 11.3342 73.0632 11.5553 73.5104 12.0061C73.9555 12.457 74.1777 13.0242 74.1785 13.7316C74.1777 14.439 73.9555 15.0061 73.5104 15.457C73.0632 15.9078 72.5264 16.1289 71.8779 16.1301C71.229 16.1289 70.6935 15.9078 70.2451 15.457L70.1706 15.5304ZM74.1822 16.055L74.1073 15.9825C73.5067 16.5961 72.7723 16.8992 71.8779 16.9004C70.9832 16.8992 70.2487 16.5961 69.6493 15.9825L69.6465 15.9792L69.6493 15.9825C69.05 15.3668 68.7542 14.6243 68.7534 13.7316C68.7542 12.8389 69.05 12.0964 69.6493 11.4807C70.2487 10.8671 70.9832 10.5635 71.8779 10.5623C72.7665 10.5635 73.4993 10.8683 74.1032 11.4852C74.7046 12.1037 75.0021 12.845 75.0033 13.7316C75.0021 14.6243 74.7055 15.3668 74.1073 15.9825L74.1822 16.055L74.2575 16.1276C74.8924 15.4774 75.2135 14.6707 75.2128 13.7316C75.2135 12.7977 74.8912 11.9928 74.2533 11.3396C73.6151 10.6839 72.8157 10.3522 71.8779 10.3534C70.9353 10.3522 70.1334 10.6823 69.4992 11.3355V11.3351C68.8631 11.9858 68.5431 12.7924 68.5439 13.7316C68.5431 14.6707 68.8631 15.4774 69.4992 16.1281L69.5021 16.131L69.4992 16.1276C70.1334 16.7808 70.9353 17.1101 71.8779 17.1093C72.8202 17.1101 73.622 16.7808 74.2575 16.1276L74.1822 16.055Z" fill="white"/>
<path d="M76.2451 16.8593V10.5926H77.2279L80.282 15.4677H80.3168L80.282 14.26V10.5926H81.0901V16.8593H80.2473L77.0519 11.748H77.0171L77.0519 12.9561V16.8593H76.2451Z" fill="white"/>
<path d="M76.2444 16.8642H76.3491V10.702H77.169L80.2232 15.5771H80.3161H80.4236L80.386 14.2634V10.702H80.9846V16.7598H80.3047L77.1093 11.6485H77.0164H76.9088L76.9464 12.9627V16.7598H76.2444V16.8642H76.3491H76.2444V16.9687H77.0512H77.1559V12.9594L77.1211 11.7501L77.0164 11.7529V11.8574H77.0512V11.7529L76.9624 11.8085L80.1884 16.9687H81.0894H81.1941V10.4931H80.2813H80.1766V14.2662L80.2113 15.4754L80.3161 15.4726V15.3682H80.2813V15.4726L80.3701 15.4172L77.2852 10.4931H76.2444H76.1396V16.9687H76.2444V16.8642Z" fill="white"/>
<defs>
<linearGradient id="paint0_linear_1_400" x1="31.4096" y1="33.9758" x2="17.0515" y2="9.19686" gradientUnits="userSpaceOnUse">
<stop stop-color="#00A0FF"/>
<stop offset="0.00657445" stop-color="#00A1FF"/>
<stop offset="0.2601" stop-color="#00BEFF"/>
<stop offset="0.5122" stop-color="#00D2FF"/>
<stop offset="0.7604" stop-color="#00DFFF"/>
<stop offset="1" stop-color="#00E3FF"/>
</linearGradient>
<linearGradient id="paint1_linear_1_400" x1="34.9488" y1="23.0541" x2="-17.4159" y2="23.0541" gradientUnits="userSpaceOnUse">
<stop stop-color="#FFE000"/>
<stop offset="0.4087" stop-color="#FFBD00"/>
<stop offset="0.7754" stop-color="#FFA500"/>
<stop offset="1" stop-color="#FF9C00"/>
</linearGradient>
<linearGradient id="paint2_linear_1_400" x1="30.3592" y1="30.698" x2="-10.2282" y2="2.36793" gradientUnits="userSpaceOnUse">
<stop stop-color="#FF3A44"/>
<stop offset="1" stop-color="#C31162"/>
</linearGradient>
<linearGradient id="paint3_linear_1_400" x1="7.03028" y1="48.291" x2="25.1446" y2="35.6674" gradientUnits="userSpaceOnUse">
<stop stop-color="#32A071"/>
<stop offset="0.0685" stop-color="#2DA771"/>
<stop offset="0.4762" stop-color="#15CF74"/>
<stop offset="0.8009" stop-color="#06E775"/>
<stop offset="1" stop-color="#00F076"/>
</linearGradient>
<linearGradient id="paint4_linear_1_400" x1="30.2539" y1="40.1977" x2="-18.8559" y2="17.0689" gradientUnits="userSpaceOnUse">
<stop stop-color="#CC2E36"/>
<stop offset="1" stop-color="#9C0E4E"/>
</linearGradient>
<linearGradient id="paint5_linear_1_400" x1="495.662" y1="384.892" x2="318.442" y2="-75.7702" gradientUnits="userSpaceOnUse">
<stop stop-color="#008DE0"/>
<stop offset="0.00657445" stop-color="#008DE0"/>
<stop offset="0.2601" stop-color="#00A7E0"/>
<stop offset="0.5122" stop-color="#00B8E0"/>
<stop offset="0.7604" stop-color="#00C4E0"/>
<stop offset="1" stop-color="#00C7E0"/>
</linearGradient>
<linearGradient id="paint6_linear_1_400" x1="36.0917" y1="35.0641" x2="-52.1186" y2="35.0641" gradientUnits="userSpaceOnUse">
<stop stop-color="#E0C500"/>
<stop offset="0.4087" stop-color="#E0A600"/>
<stop offset="0.7754" stop-color="#E09100"/>
<stop offset="1" stop-color="#E08900"/>
</linearGradient>
<linearGradient id="paint7_linear_1_400" x1="36.0915" y1="10.6192" x2="-52.1129" y2="10.6192" gradientUnits="userSpaceOnUse">
<stop stop-color="#FFE840"/>
<stop offset="0.4087" stop-color="#FFCE40"/>
<stop offset="0.7754" stop-color="#FFBC40"/>
<stop offset="1" stop-color="#FFB540"/>
</linearGradient>
<linearGradient id="paint8_linear_1_400" x1="7.14527" y1="54.5519" x2="29.0744" y2="44.2236" gradientUnits="userSpaceOnUse">
<stop stop-color="#65B895"/>
<stop offset="0.0685" stop-color="#62BD95"/>
<stop offset="0.4762" stop-color="#50DB97"/>
<stop offset="0.8009" stop-color="#44ED98"/>
<stop offset="1" stop-color="#40F498"/>
</linearGradient>
<linearGradient id="paint9_linear_1_400" x1="22.5493" y1="12.1142" x2="6.60626" y2="28.102" gradientUnits="userSpaceOnUse">
<stop stop-color="#40B8FF"/>
<stop offset="0.00657445" stop-color="#40B9FF"/>
<stop offset="0.2601" stop-color="#40CEFF"/>
<stop offset="0.5122" stop-color="#40DDFF"/>
<stop offset="0.7604" stop-color="#40E7FF"/>
<stop offset="1" stop-color="#40EAFF"/>
</linearGradient>
</defs>
</svg>
